<svg width="72" height="72" viewBox="0 0 72 72" fill="none" xmlns="http://www.w3.org/2000/svg"><path d="M56 0H16C7.16344 0 0 7.16344 0 16V56C0 64.8366 7.16344 72 16 72H56C64.8366 72 72 64.8366 72 56V16C72 7.16344 64.8366 0 56 0Z" fill="url(#paint0_linear)"></path><path d="M20.25 16.75H16.75H20.25ZM51.75 53.5V56.125V53.5ZM53.063 54.813H50.437H53.063ZM18.5 15V18.5V15Z" stroke="white"></path><path d="M36.875 30.75C36.2537 30.75 35.75 31.2537 35.75 31.875C35.75 32.4963 36.2537 33 36.875 33H42.125C42.7463 33 43.25 32.4963 43.25 31.875C43.25 31.2537 42.7463 30.75 42.125 30.75H36.875Z" fill="white"></path><path d="M35.75 40.125C35.75 39.5037 36.2535 39 36.875 39H42.1247C42.7462 39 43.2497 39.5037 43.2497 40.125C43.2497 40.7463 42.7462 41.25 42.1247 41.25H36.875C36.2535 41.25 35.75 40.7463 35.75 40.125Z" fill="white"></path><path d="M33.1704 29.5795C33.6098 30.0188 33.6098 30.7312 33.1704 31.1705L30.1705 34.1704C29.7312 34.6098 29.0188 34.6098 28.5795 34.1704L27.0795 32.6705C26.6402 32.2312 26.6402 31.5188 27.0795 31.0795C27.5188 30.6402 28.2312 30.6402 28.6705 31.0795L29.375 31.784L31.5795 29.5795C32.0189 29.1402 32.7311 29.1402 33.1704 29.5795Z" fill="white"></path><path d="M33.1704 39.4204C33.6098 38.9811 33.6098 38.2689 33.1704 37.8295C32.7311 37.3902 32.0189 37.3902 31.5795 37.8295L29.375 40.0339L28.6705 39.3295C28.2312 38.8902 27.5188 38.8902 27.0795 39.3295C26.6402 39.7689 26.6402 40.4811 27.0795 40.9204L28.5795 42.4204C29.0188 42.8598 29.7312 42.8598 30.1705 42.4204L33.1704 39.4204Z" fill="white"></path><path d="M24.875 22.5C23.011 22.5 21.5 24.011 21.5 25.875V46.125C21.5 47.9889 23.011 49.5 24.875 49.5H45.125C46.9889 49.5 48.5 47.9889 48.5 46.125V25.875C48.5 24.011 46.9889 22.5 45.125 22.5H24.875ZM23.75 25.875C23.75 25.2537 24.2537 24.75 24.875 24.75H45.125C45.7463 24.75 46.25 25.2537 46.25 25.875V46.125C46.25 46.7463 45.7463 47.25 45.125 47.25H24.875C24.2537 47.25 23.75 46.7463 23.75 46.125V25.875Z" fill="white"></path><defs><linearGradient id="paint0_linear" x1="0" y1="0" x2="68" y2="73.5" gradientUnits="userSpaceOnUse"><stop stop-color="#067B4B"></stop><stop offset="1" stop-color="#00693D"></stop></linearGradient></defs></svg>